<?xml version="1.0" encoding="UTF-8" standalone="no"?>
<!-- Created with Inkscape (http://www.inkscape.org/) -->

<svg
   width="42.63921mm"
   height="37.855175mm"
   viewBox="0 0 42.63921 37.855175"
   version="1.1"
   id="svg1"
   xmlns="http://www.w3.org/2000/svg"
   xmlns:svg="http://www.w3.org/2000/svg">
  <defs
     id="defs1">
    <marker
       style="overflow:visible"
       id="marker5"
       refX="0"
       refY="0"
       orient="auto"
       markerWidth="1"
       markerHeight="1"
       viewBox="0 0 1 1"
       preserveAspectRatio="xMidYMid">
      <path
         transform="scale(0.5)"
         style="fill:context-stroke;fill-rule:evenodd;stroke:none"
         d="M 5,0 C 5,2.76 2.76,5 0,5 -2.76,5 -5,2.76 -5,0 c 0,-2.76 2.3,-5 5,-5 2.76,0 5,2.24 5,5 z"
         id="path5" />
    </marker>
    <marker
       style="overflow:visible"
       id="Dot"
       refX="0"
       refY="0"
       orient="auto"
       markerWidth="1"
       markerHeight="1"
       viewBox="0 0 1 1"
       preserveAspectRatio="xMidYMid">
      <path
         transform="scale(0.5)"
         style="fill:context-stroke;fill-rule:evenodd;stroke:none"
         d="M 5,0 C 5,2.76 2.76,5 0,5 -2.76,5 -5,2.76 -5,0 c 0,-2.76 2.3,-5 5,-5 2.76,0 5,2.24 5,5 z"
         id="path17" />
    </marker>
  </defs>
  <g
     id="layer1"
     transform="translate(-46.967982,-18.648797)">
    <path
       id="rect1"
       style="fill:none;stroke:#000000;stroke-width:0.264999"
       d="M 47.139107,21.95628 H 79.562 V 43.519079 H 47.139107 Z" />
    <path
       id="rect1-4"
       style="fill:none;stroke:#000000;stroke-width:0.264999"
       d="M 57.0518,31.471306 H 89.474693 V 53.034105 H 57.0518 Z" />
    <path
       style="fill:none;stroke:#000000;stroke-width:0.264583px;stroke-linecap:butt;stroke-linejoin:miter;stroke-opacity:1"
       d="M 57.133545,31.714625 47.060413,21.877583"
       id="path1" />
    <path
       style="fill:none;stroke:#000000;stroke-width:0.264583px;stroke-linecap:butt;stroke-linejoin:miter;stroke-opacity:1;marker-end:url(#marker5)"
       d="M 89.47774,31.399839 79.562001,21.877583"
       id="path2" />
    <path
       style="fill:none;stroke:#000000;stroke-width:0.264583px;stroke-linecap:butt;stroke-linejoin:miter;stroke-opacity:1;marker-start:url(#Dot)"
       d="M 57.054847,52.962637 47.060413,43.519076"
       id="path3" />
    <path
       style="fill:none;stroke:#000000;stroke-width:0.264583px;stroke-linecap:butt;stroke-linejoin:miter;stroke-opacity:1"
       d="M 89.241653,52.805245 79.483306,43.282989"
       id="path4" />
    <path
       d="m 53.446792,54.770421 q 0.288925,0 0.4318,0.149225 0.142875,0.14605 0.142875,0.47625 v 1.108075 h -0.276225 v -1.095375 q 0,-0.403225 -0.346075,-0.403225 -0.24765,0 -0.3556,0.142875 -0.104775,0.142875 -0.104775,0.415925 v 0.9398 h -0.276225 v -1.095375 q 0,-0.403225 -0.34925,-0.403225 -0.257175,0 -0.3556,0.15875 -0.09842,0.15875 -0.09842,0.4572 v 0.88265 h -0.2794 v -1.7018 h 0.225425 l 0.04127,0.231775 h 0.01588 q 0.07937,-0.13335 0.212725,-0.19685 0.136525,-0.06668 0.288925,-0.06668 0.40005,0 0.5207,0.28575 h 0.01588 q 0.08573,-0.14605 0.231775,-0.2159 0.149225,-0.06985 0.314325,-0.06985 z m 1.244598,-0.606425 q 0.0635,0 0.111125,0.04445 0.0508,0.04127 0.0508,0.13335 0,0.0889 -0.0508,0.13335 -0.04762,0.04445 -0.111125,0.04445 -0.06985,0 -0.117475,-0.04445 -0.04762,-0.04445 -0.04762,-0.13335 0,-0.09208 0.04762,-0.13335 0.04763,-0.04445 0.117475,-0.04445 z m 0.136525,0.638175 v 1.7018 h -0.2794 v -1.7018 z m 1.358898,-0.03175 q 0.3048,0 0.460375,0.149225 0.155575,0.14605 0.155575,0.47625 v 1.108075 h -0.276225 v -1.089025 q 0,-0.409575 -0.381,-0.409575 -0.282575,0 -0.390525,0.15875 -0.10795,0.15875 -0.10795,0.4572 v 0.88265 h -0.2794 v -1.7018 h 0.225425 l 0.04127,0.231775 h 0.01588 q 0.08255,-0.13335 0.2286,-0.19685 0.14605,-0.06668 0.307975,-0.06668 z"
       id="text4"
       style="font-size:3.175px;line-height:1.25;font-family:Sans;-inkscape-font-specification:'Sans, Normal';letter-spacing:0px;word-spacing:0px;stroke-width:0.264583"
       aria-label="min" />
    <path
       d="m 82.170947,18.648803 q 0.288925,0 0.4318,0.149225 0.142875,0.14605 0.142875,0.47625 v 1.108075 h -0.276225 v -1.095375 q 0,-0.403225 -0.346075,-0.403225 -0.24765,0 -0.3556,0.142875 -0.104775,0.142875 -0.104775,0.415925 v 0.9398 h -0.276225 v -1.095375 q 0,-0.403225 -0.34925,-0.403225 -0.257175,0 -0.3556,0.15875 -0.09842,0.15875 -0.09842,0.4572 v 0.88265 h -0.2794 v -1.7018 h 0.225425 l 0.04127,0.231775 h 0.01588 q 0.07937,-0.13335 0.212725,-0.19685 0.136525,-0.06668 0.288925,-0.06668 0.40005,0 0.5207,0.28575 h 0.01588 q 0.08572,-0.14605 0.231775,-0.2159 0.149225,-0.06985 0.314325,-0.06985 z m 1.746248,0.0032 q 0.31115,0 0.460375,0.136525 0.149225,0.136525 0.149225,0.434975 v 1.158875 h -0.2032 l -0.05397,-0.2413 h -0.0127 q -0.111125,0.1397 -0.23495,0.206375 -0.12065,0.06668 -0.33655,0.06668 -0.231775,0 -0.384175,-0.12065 -0.1524,-0.123825 -0.1524,-0.384175 0,-0.254 0.200025,-0.390525 0.200025,-0.1397 0.61595,-0.1524 l 0.288925,-0.0095 v -0.1016 q 0,-0.212725 -0.09207,-0.295275 -0.09207,-0.08255 -0.26035,-0.08255 -0.13335,0 -0.254,0.04127 -0.12065,0.0381 -0.225425,0.0889 l -0.08573,-0.20955 q 0.111125,-0.06032 0.263525,-0.1016 0.1524,-0.04445 0.3175,-0.04445 z m 0.08255,0.90805 q -0.3175,0.0127 -0.441325,0.1016 -0.12065,0.0889 -0.12065,0.250825 0,0.142875 0.08572,0.20955 0.0889,0.06668 0.225425,0.06668 0.2159,0 0.358775,-0.117475 0.142875,-0.12065 0.142875,-0.3683 v -0.1524 z m 1.457328,-0.04763 -0.587375,-0.83185 h 0.3175 l 0.43815,0.64135 0.434975,-0.64135 h 0.314325 l -0.587375,0.83185 0.619125,0.86995 h -0.3175 l -0.46355,-0.67945 -0.4699,0.67945 h -0.314325 z"
       id="text5"
       style="font-size:3.175px;line-height:1.25;font-family:Sans;-inkscape-font-specification:'Sans, Normal';letter-spacing:0px;word-spacing:0px;stroke-width:0.264583"
       aria-label="max" />
  </g>
</svg>
