<svg version="1.1" xmlns="http://www.w3.org/2000/svg" xmlns:xlink="http://www.w3.org/1999/xlink" width="954" height="330"><defs><clipPath id="uqkiUITJazWI"><path fill="none" stroke="none" d=" M 0 0 L 954 0 L 954 330 L 0 330 L 0 0 Z"/></clipPath></defs><g transform="scale(1,1)" clip-path="url(#uqkiUITJazWI)"><g><rect fill="rgb(255,255,255)" stroke="none" x="0" y="0" width="955" height="330" fill-opacity="1"/><path fill="none" stroke="rgb(180,179,186)" paint-order="fill stroke markers" d=" M 3.5 0.5 L 3.5 330.5 M 3.5 0.5 L 3.5 330.5 M 89.5 0.5 L 89.5 330.5 M 175.5 0.5 L 175.5 330.5 M 262.5 0.5 L 262.5 330.5 M 434.5 0.5 L 434.5 330.5 M 520.5 0.5 L 520.5 330.5 M 606.5 0.5 L 606.5 330.5 M 693.5 0.5 L 693.5 330.5 M 779.5 0.5 L 779.5 330.5 M 865.5 0.5 L 865.5 330.5 M 951.5 0.5 L 951.5 330.5" stroke-opacity="1" stroke-linecap="round" stroke-linejoin="round" stroke-miterlimit="10"/><path fill="none" stroke="rgb(180,179,186)" paint-order="fill stroke markers" d=" M 20.5 0.5 L 20.5 330.5 M 38.5 0.5 L 38.5 330.5 M 55.5 0.5 L 55.5 330.5 M 72.5 0.5 L 72.5 330.5 M 106.5 0.5 L 106.5 330.5 M 124.5 0.5 L 124.5 330.5 M 141.5 0.5 L 141.5 330.5 M 158.5 0.5 L 158.5 330.5 M 193.5 0.5 L 193.5 330.5 M 210.5 0.5 L 210.5 330.5 M 227.5 0.5 L 227.5 330.5 M 244.5 0.5 L 244.5 330.5 M 279.5 0.5 L 279.5 330.5 M 296.5 0.5 L 296.5 330.5 M 313.5 0.5 L 313.5 330.5 M 331.5 0.5 L 331.5 330.5 M 365.5 0.5 L 365.5 330.5 M 382.5 0.5 L 382.5 330.5 M 399.5 0.5 L 399.5 330.5 M 417.5 0.5 L 417.5 330.5 M 451.5 0.5 L 451.5 330.5 M 468.5 0.5 L 468.5 330.5 M 486.5 0.5 L 486.5 330.5 M 503.5 0.5 L 503.5 330.5 M 537.5 0.5 L 537.5 330.5 M 555.5 0.5 L 555.5 330.5 M 572.5 0.5 L 572.5 330.5 M 589.5 0.5 L 589.5 330.5 M 624.5 0.5 L 624.5 330.5 M 641.5 0.5 L 641.5 330.5 M 658.5 0.5 L 658.5 330.5 M 675.5 0.5 L 675.5 330.5 M 710.5 0.5 L 710.5 330.5 M 727.5 0.5 L 727.5 330.5 M 744.5 0.5 L 744.5 330.5 M 761.5 0.5 L 761.5 330.5 M 796.5 0.5 L 796.5 330.5 M 813.5 0.5 L 813.5 330.5 M 830.5 0.5 L 830.5 330.5 M 848.5 0.5 L 848.5 330.5 M 882.5 0.5 L 882.5 330.5 M 899.5 0.5 L 899.5 330.5 M 917.5 0.5 L 917.5 330.5 M 934.5 0.5 L 934.5 330.5" stroke-opacity="0.23529411764705882" stroke-linecap="round" stroke-linejoin="round" stroke-miterlimit="10"/><path fill="none" stroke="rgb(180,179,186)" paint-order="fill stroke markers" d=" M 0.5 134.5 L 954.5 134.5 M 0.5 220.5 L 954.5 220.5 M 0.5 306.5 L 954.5 306.5" stroke-opacity="1" stroke-linecap="round" stroke-linejoin="round" stroke-miterlimit="10"/><path fill="none" stroke="rgb(180,179,186)" paint-order="fill stroke markers" d=" M 0.5 13.5 L 954.5 13.5 M 0.5 13.5 L 954.5 13.5 M 0.5 30.5 L 954.5 30.5 M 0.5 65.5 L 954.5 65.5 M 0.5 82.5 L 954.5 82.5 M 0.5 99.5 L 954.5 99.5 M 0.5 117.5 L 954.5 117.5 M 0.5 151.5 L 954.5 151.5 M 0.5 168.5 L 954.5 168.5 M 0.5 186.5 L 954.5 186.5 M 0.5 203.5 L 954.5 203.5 M 0.5 237.5 L 954.5 237.5 M 0.5 255.5 L 954.5 255.5 M 0.5 272.5 L 954.5 272.5 M 0.5 289.5 L 954.5 289.5 M 0.5 324.5 L 954.5 324.5" stroke-opacity="0.23529411764705882" stroke-linecap="round" stroke-linejoin="round" stroke-miterlimit="10"/><path fill="none" stroke="rgb(28,28,31)" paint-order="fill stroke markers" d=" M 348.5 2.5 L 348.5 330.5" stroke-opacity="1" stroke-miterlimit="10"/><path fill="none" stroke="rgb(28,28,31)" paint-order="fill stroke markers" d=" M 348.5 1.5 L 344.5 5.5" stroke-opacity="1" stroke-miterlimit="10"/><path fill="none" stroke="rgb(28,28,31)" paint-order="fill stroke markers" d=" M 348.5 1.5 L 352.5 5.5" stroke-opacity="1" stroke-miterlimit="10"/><path fill="none" stroke="rgb(28,28,31)" paint-order="fill stroke markers" d=" M 0.5 48.5 L 952.5 48.5" stroke-opacity="1" stroke-miterlimit="10"/><path fill="none" stroke="rgb(28,28,31)" paint-order="fill stroke markers" d=" M 953.5 48.5 L 949.5 44.5" stroke-opacity="1" stroke-miterlimit="10"/><path fill="none" stroke="rgb(28,28,31)" paint-order="fill stroke markers" d=" M 953.5 48.5 L 949.5 52.5" stroke-opacity="1" stroke-miterlimit="10"/><text fill="rgb(28,28,31)" stroke="none" font-family="geogebra-sans-serif, sans-serif" font-size="12px" font-style="normal" font-weight="normal" text-decoration="normal" x="84" y="64" text-anchor="start" dominant-baseline="alphabetic" fill-opacity="1">–3</text><text fill="rgb(28,28,31)" stroke="none" font-family="geogebra-sans-serif, sans-serif" font-size="12px" font-style="normal" font-weight="normal" text-decoration="normal" x="170" y="64" text-anchor="start" dominant-baseline="alphabetic" fill-opacity="1">–2</text><text fill="rgb(28,28,31)" stroke="none" font-family="geogebra-sans-serif, sans-serif" font-size="12px" font-style="normal" font-weight="normal" text-decoration="normal" x="257" y="64" text-anchor="start" dominant-baseline="alphabetic" fill-opacity="1">–1</text><text fill="rgb(28,28,31)" stroke="none" font-family="geogebra-sans-serif, sans-serif" font-size="12px" font-style="normal" font-weight="normal" text-decoration="normal" x="432" y="64" text-anchor="start" dominant-baseline="alphabetic" fill-opacity="1">1</text><text fill="rgb(28,28,31)" stroke="none" font-family="geogebra-sans-serif, sans-serif" font-size="12px" font-style="normal" font-weight="normal" text-decoration="normal" x="518" y="64" text-anchor="start" dominant-baseline="alphabetic" fill-opacity="1">2</text><text fill="rgb(28,28,31)" stroke="none" font-family="geogebra-sans-serif, sans-serif" font-size="12px" font-style="normal" font-weight="normal" text-decoration="normal" x="604" y="64" text-anchor="start" dominant-baseline="alphabetic" fill-opacity="1">3</text><text fill="rgb(28,28,31)" stroke="none" font-family="geogebra-sans-serif, sans-serif" font-size="12px" font-style="normal" font-weight="normal" text-decoration="normal" x="691" y="64" text-anchor="start" dominant-baseline="alphabetic" fill-opacity="1">4</text><text fill="rgb(28,28,31)" stroke="none" font-family="geogebra-sans-serif, sans-serif" font-size="12px" font-style="normal" font-weight="normal" text-decoration="normal" x="777" y="64" text-anchor="start" dominant-baseline="alphabetic" fill-opacity="1">5</text><text fill="rgb(28,28,31)" stroke="none" font-family="geogebra-sans-serif, sans-serif" font-size="12px" font-style="normal" font-weight="normal" text-decoration="normal" x="863" y="64" text-anchor="start" dominant-baseline="alphabetic" fill-opacity="1">6</text><text fill="rgb(28,28,31)" stroke="none" font-family="geogebra-sans-serif, sans-serif" font-size="12px" font-style="normal" font-weight="normal" text-decoration="normal" x="334" y="64" text-anchor="start" dominant-baseline="alphabetic" fill-opacity="1">0</text><path fill="none" stroke="rgb(0,0,0)" paint-order="fill stroke markers" d=" M 492.7654675566475 335 L 492.76540274969665 -5" stroke-opacity="0.6980392156862745" stroke-linejoin="round" stroke-miterlimit="10" stroke-width="2.5" stroke-dasharray="10.5,8"/><path fill="none" stroke="rgb(0,0,0)" paint-order="fill stroke markers" d=" M 547.9233625964142 335 L 547.9232865975688 -5" stroke-opacity="0.6980392156862745" stroke-linejoin="round" stroke-miterlimit="10" stroke-width="2.5" stroke-dasharray="10.5,8"/><path fill="none" stroke="rgb(0,0,0)" paint-order="fill stroke markers" d=" M 492.7654293404521 134.50443144873262 L 706.5023216950183 134.50443144873262" stroke-opacity="0.6980392156862745" stroke-linecap="round" stroke-linejoin="round" stroke-miterlimit="10" stroke-width="2.5"/><path fill="none" stroke="rgb(0,0,0)" paint-order="fill stroke markers" d=" M 357.45618700308563 306.8728930249955 L 634.1075678329878 306.8728930249955" stroke-opacity="0.6980392156862745" stroke-linecap="round" stroke-linejoin="round" stroke-miterlimit="10" stroke-width="2.5"/><path fill="none" stroke="rgb(0,0,0)" paint-order="fill stroke markers" d=" M 107.52191771750415 220.68866223686405 L 547.9233370448563 220.68866223686405" stroke-opacity="0.6980392156862745" stroke-linecap="round" stroke-linejoin="round" stroke-miterlimit="10" stroke-width="2.5"/><path fill="rgb(77,77,255)" stroke="none" paint-order="stroke fill markers" d=" M 497.7654293404521 134.50443144873262 C 497.7654293404521 137.2658551978866 495.52685308960605 139.50443144873262 492.7654293404521 139.50443144873262 C 490.00400559129815 139.50443144873262 487.7654293404521 137.2658551978866 487.7654293404521 134.50443144873262 C 487.7654293404521 131.74300769957864 490.00400559129815 129.50443144873262 492.7654293404521 129.50443144873262 C 495.52685308960605 129.50443144873262 497.7654293404521 131.74300769957864 497.7654293404521 134.50443144873262 Z" fill-opacity="1"/><path fill="none" stroke="rgb(0,0,0)" paint-order="fill stroke markers" d=" M 497.7654293404521 134.50443144873262 C 497.7654293404521 137.2658551978866 495.52685308960605 139.50443144873262 492.7654293404521 139.50443144873262 C 490.00400559129815 139.50443144873262 487.7654293404521 137.2658551978866 487.7654293404521 134.50443144873262 C 487.7654293404521 131.74300769957864 490.00400559129815 129.50443144873262 492.7654293404521 129.50443144873262 C 495.52685308960605 129.50443144873262 497.7654293404521 131.74300769957864 497.7654293404521 134.50443144873262 Z" stroke-opacity="1" stroke-linecap="round" stroke-linejoin="round" stroke-miterlimit="10"/><text fill="rgb(77,77,255)" stroke="none" font-family="geogebra-sans-serif, sans-serif" font-size="16px" font-style="normal" font-weight="normal" text-decoration="normal" x="497" y="125" text-anchor="start" dominant-baseline="alphabetic" fill-opacity="1">t</text><text fill="rgb(77,77,255)" stroke="none" font-family="geogebra-sans-serif, sans-serif" font-size="14px" font-style="normal" font-weight="normal" text-decoration="normal" x="501" y="132" text-anchor="start" dominant-baseline="alphabetic" fill-opacity="1">left</text><path fill="rgb(77,77,255)" stroke="none" paint-order="stroke fill markers" d=" M 711.5023216950183 134.50443144873262 C 711.5023216950183 137.2658551978866 709.2637454441723 139.50443144873262 706.5023216950183 139.50443144873262 C 703.7408979458643 139.50443144873262 701.5023216950183 137.2658551978866 701.5023216950183 134.50443144873262 C 701.5023216950183 131.74300769957864 703.7408979458643 129.50443144873262 706.5023216950183 129.50443144873262 C 709.2637454441723 129.50443144873262 711.5023216950183 131.74300769957864 711.5023216950183 134.50443144873262 Z" fill-opacity="1"/><path fill="none" stroke="rgb(0,0,0)" paint-order="fill stroke markers" d=" M 711.5023216950183 134.50443144873262 C 711.5023216950183 137.2658551978866 709.2637454441723 139.50443144873262 706.5023216950183 139.50443144873262 C 703.7408979458643 139.50443144873262 701.5023216950183 137.2658551978866 701.5023216950183 134.50443144873262 C 701.5023216950183 131.74300769957864 703.7408979458643 129.50443144873262 706.5023216950183 129.50443144873262 C 709.2637454441723 129.50443144873262 711.5023216950183 131.74300769957864 711.5023216950183 134.50443144873262 Z" stroke-opacity="1" stroke-linecap="round" stroke-linejoin="round" stroke-miterlimit="10"/><text fill="rgb(77,77,255)" stroke="none" font-family="geogebra-sans-serif, sans-serif" font-size="16px" font-style="normal" font-weight="normal" text-decoration="normal" x="711" y="125" text-anchor="start" dominant-baseline="alphabetic" fill-opacity="1">t</text><text fill="rgb(77,77,255)" stroke="none" font-family="geogebra-sans-serif, sans-serif" font-size="14px" font-style="normal" font-weight="normal" text-decoration="normal" x="715" y="132" text-anchor="start" dominant-baseline="alphabetic" fill-opacity="1">right</text><path fill="rgb(77,77,255)" stroke="none" paint-order="stroke fill markers" d=" M 362.45618700308563 306.8728930249955 C 362.45618700308563 309.63431677414945 360.2176107522396 311.8728930249955 357.45618700308563 311.8728930249955 C 354.6947632539317 311.8728930249955 352.45618700308563 309.63431677414945 352.45618700308563 306.8728930249955 C 352.45618700308563 304.11146927584156 354.6947632539317 301.8728930249955 357.45618700308563 301.8728930249955 C 360.2176107522396 301.8728930249955 362.45618700308563 304.11146927584156 362.45618700308563 306.8728930249955 Z" fill-opacity="1"/><path fill="none" stroke="rgb(0,0,0)" paint-order="fill stroke markers" d=" M 362.45618700308563 306.8728930249955 C 362.45618700308563 309.63431677414945 360.2176107522396 311.8728930249955 357.45618700308563 311.8728930249955 C 354.6947632539317 311.8728930249955 352.45618700308563 309.63431677414945 352.45618700308563 306.8728930249955 C 352.45618700308563 304.11146927584156 354.6947632539317 301.8728930249955 357.45618700308563 301.8728930249955 C 360.2176107522396 301.8728930249955 362.45618700308563 304.11146927584156 362.45618700308563 306.8728930249955 Z" stroke-opacity="1" stroke-linecap="round" stroke-linejoin="round" stroke-miterlimit="10"/><text fill="rgb(77,77,255)" stroke="none" font-family="geogebra-sans-serif, sans-serif" font-size="16px" font-style="normal" font-weight="normal" text-decoration="normal" x="361" y="297" text-anchor="start" dominant-baseline="alphabetic" fill-opacity="1">t</text><text fill="rgb(77,77,255)" stroke="none" font-family="geogebra-sans-serif, sans-serif" font-size="14px" font-style="normal" font-weight="normal" text-decoration="normal" x="365" y="304" text-anchor="start" dominant-baseline="alphabetic" fill-opacity="1">front</text><path fill="rgb(77,77,255)" stroke="none" paint-order="stroke fill markers" d=" M 639.1075678329878 306.8728930249955 C 639.1075678329878 309.63431677414945 636.8689915821418 311.8728930249955 634.1075678329878 311.8728930249955 C 631.3461440838338 311.8728930249955 629.1075678329878 309.63431677414945 629.1075678329878 306.8728930249955 C 629.1075678329878 304.11146927584156 631.3461440838338 301.8728930249955 634.1075678329878 301.8728930249955 C 636.8689915821418 301.8728930249955 639.1075678329878 304.11146927584156 639.1075678329878 306.8728930249955 Z" fill-opacity="1"/><path fill="none" stroke="rgb(0,0,0)" paint-order="fill stroke markers" d=" M 639.1075678329878 306.8728930249955 C 639.1075678329878 309.63431677414945 636.8689915821418 311.8728930249955 634.1075678329878 311.8728930249955 C 631.3461440838338 311.8728930249955 629.1075678329878 309.63431677414945 629.1075678329878 306.8728930249955 C 629.1075678329878 304.11146927584156 631.3461440838338 301.8728930249955 634.1075678329878 301.8728930249955 C 636.8689915821418 301.8728930249955 639.1075678329878 304.11146927584156 639.1075678329878 306.8728930249955 Z" stroke-opacity="1" stroke-linecap="round" stroke-linejoin="round" stroke-miterlimit="10"/><text fill="rgb(77,77,255)" stroke="none" font-family="geogebra-sans-serif, sans-serif" font-size="16px" font-style="normal" font-weight="normal" text-decoration="normal" x="638" y="297" text-anchor="start" dominant-baseline="alphabetic" fill-opacity="1">t</text><text fill="rgb(77,77,255)" stroke="none" font-family="geogebra-sans-serif, sans-serif" font-size="14px" font-style="normal" font-weight="normal" text-decoration="normal" x="642" y="304" text-anchor="start" dominant-baseline="alphabetic" fill-opacity="1">back</text><path fill="rgb(77,77,255)" stroke="none" paint-order="stroke fill markers" d=" M 112.52191771750415 220.68866223686405 C 112.52191771750415 223.45008598601802 110.28334146665811 225.68866223686405 107.52191771750415 225.68866223686405 C 104.76049396835019 225.68866223686405 102.52191771750415 223.45008598601802 102.52191771750415 220.68866223686405 C 102.52191771750415 217.92723848771007 104.76049396835019 215.68866223686405 107.52191771750415 215.68866223686405 C 110.28334146665811 215.68866223686405 112.52191771750415 217.92723848771007 112.52191771750415 220.68866223686405 Z" fill-opacity="1"/><path fill="none" stroke="rgb(0,0,0)" paint-order="fill stroke markers" d=" M 112.52191771750415 220.68866223686405 C 112.52191771750415 223.45008598601802 110.28334146665811 225.68866223686405 107.52191771750415 225.68866223686405 C 104.76049396835019 225.68866223686405 102.52191771750415 223.45008598601802 102.52191771750415 220.68866223686405 C 102.52191771750415 217.92723848771007 104.76049396835019 215.68866223686405 107.52191771750415 215.68866223686405 C 110.28334146665811 215.68866223686405 112.52191771750415 217.92723848771007 112.52191771750415 220.68866223686405 Z" stroke-opacity="1" stroke-linecap="round" stroke-linejoin="round" stroke-miterlimit="10"/><text fill="rgb(77,77,255)" stroke="none" font-family="geogebra-sans-serif, sans-serif" font-size="16px" font-style="normal" font-weight="normal" text-decoration="normal" x="112" y="211" text-anchor="start" dominant-baseline="alphabetic" fill-opacity="1">t</text><text fill="rgb(77,77,255)" stroke="none" font-family="geogebra-sans-serif, sans-serif" font-size="14px" font-style="normal" font-weight="normal" text-decoration="normal" x="116" y="218" text-anchor="start" dominant-baseline="alphabetic" fill-opacity="1">bottom</text><path fill="rgb(77,77,255)" stroke="none" paint-order="stroke fill markers" d=" M 552.9233370448563 220.68866223686405 C 552.9233370448563 223.45008598601802 550.6847607940103 225.68866223686405 547.9233370448563 225.68866223686405 C 545.1619132957023 225.68866223686405 542.9233370448563 223.45008598601802 542.9233370448563 220.68866223686405 C 542.9233370448563 217.92723848771007 545.1619132957023 215.68866223686405 547.9233370448563 215.68866223686405 C 550.6847607940103 215.68866223686405 552.9233370448563 217.92723848771007 552.9233370448563 220.68866223686405 Z" fill-opacity="1"/><path fill="none" stroke="rgb(0,0,0)" paint-order="fill stroke markers" d=" M 552.9233370448563 220.68866223686405 C 552.9233370448563 223.45008598601802 550.6847607940103 225.68866223686405 547.9233370448563 225.68866223686405 C 545.1619132957023 225.68866223686405 542.9233370448563 223.45008598601802 542.9233370448563 220.68866223686405 C 542.9233370448563 217.92723848771007 545.1619132957023 215.68866223686405 547.9233370448563 215.68866223686405 C 550.6847607940103 215.68866223686405 552.9233370448563 217.92723848771007 552.9233370448563 220.68866223686405 Z" stroke-opacity="1" stroke-linecap="round" stroke-linejoin="round" stroke-miterlimit="10"/><text fill="rgb(77,77,255)" stroke="none" font-family="geogebra-sans-serif, sans-serif" font-size="16px" font-style="normal" font-weight="normal" text-decoration="normal" x="552" y="211" text-anchor="start" dominant-baseline="alphabetic" fill-opacity="1">t</text><text fill="rgb(77,77,255)" stroke="none" font-family="geogebra-sans-serif, sans-serif" font-size="14px" font-style="normal" font-weight="normal" text-decoration="normal" x="556" y="218" text-anchor="start" dominant-baseline="alphabetic" fill-opacity="1">top</text><text fill="rgb(0,0,0)" stroke="none" font-family="geogebra-sans-serif, sans-serif" font-size="16px" font-style="normal" font-weight="normal" text-decoration="normal" x="563" y="22" text-anchor="start" dominant-baseline="alphabetic" fill-opacity="1">t</text><text fill="rgb(0,0,0)" stroke="none" font-family="geogebra-sans-serif, sans-serif" font-size="14px" font-style="normal" font-weight="normal" text-decoration="normal" x="567" y="29" text-anchor="start" dominant-baseline="alphabetic" fill-opacity="1">max</text><text fill="rgb(0,0,0)" stroke="none" font-family="geogebra-sans-serif, sans-serif" font-size="16px" font-style="normal" font-weight="normal" text-decoration="normal" x="447" y="25" text-anchor="start" dominant-baseline="alphabetic" fill-opacity="1">t</text><text fill="rgb(0,0,0)" stroke="none" font-family="geogebra-sans-serif, sans-serif" font-size="14px" font-style="normal" font-weight="normal" text-decoration="normal" x="451" y="32" text-anchor="start" dominant-baseline="alphabetic" fill-opacity="1">min</text></g></g></svg>