<?xml version="1.0" encoding="UTF-8" standalone="no"?>
<!-- Created with Inkscape (http://www.inkscape.org/) -->

<svg
   width="20.265284mm"
   height="31.646521mm"
   viewBox="0 0 20.265284 31.646521"
   version="1.1"
   id="svg1"
   xmlns="http://www.w3.org/2000/svg"
   xmlns:svg="http://www.w3.org/2000/svg">
  <defs
     id="defs1">
    <marker
       style="overflow:visible"
       id="Dot-0"
       refX="0"
       refY="0"
       orient="auto"
       markerWidth="1"
       markerHeight="1"
       viewBox="0 0 1 1"
       preserveAspectRatio="xMidYMid">
      <path
         transform="scale(0.5)"
         style="fill:context-stroke;fill-rule:evenodd;stroke:none"
         d="M 5,0 C 5,2.76 2.76,5 0,5 -2.76,5 -5,2.76 -5,0 c 0,-2.76 2.3,-5 5,-5 2.76,0 5,2.24 5,5 z"
         id="path17-9" />
    </marker>
    <marker
       style="overflow:visible"
       id="Triangle-4"
       refX="0"
       refY="0"
       orient="auto-start-reverse"
       markerWidth="1"
       markerHeight="1"
       viewBox="0 0 1 1"
       preserveAspectRatio="xMidYMid">
      <path
         transform="scale(0.5)"
         style="fill:context-stroke;fill-rule:evenodd;stroke:context-stroke;stroke-width:1pt"
         d="M 5.77,0 -2.88,5 V -5 Z"
         id="path135-8" />
    </marker>
  </defs>
  <g
     id="layer1"
     transform="translate(-95.378076,-18.968097)">
    <path
       style="fill:none;stroke:#000000;stroke-width:0.451994;stroke-linecap:butt;stroke-linejoin:miter;stroke-dasharray:none;stroke-opacity:1;marker-start:url(#Dot-0);marker-end:url(#Triangle-4)"
       d="M 96.505095,46.693908 111.774,20.356681"
       id="path3-4" />
    <path
       d="m 99.445157,49.446217 q 0,0.352425 -0.12065,0.61595 -0.117475,0.26035 -0.34925,0.4064 -0.231775,0.14605 -0.574675,0.14605 -0.352425,0 -0.587375,-0.14605 -0.231775,-0.14605 -0.346075,-0.409575 -0.1143,-0.263525 -0.1143,-0.61595 0,-0.34925 0.1143,-0.6096 0.1143,-0.26035 0.346075,-0.4064 0.23495,-0.14605 0.59055,-0.14605 0.339725,0 0.5715,0.14605 0.231775,0.142875 0.34925,0.4064 0.12065,0.26035 0.12065,0.612775 z m -1.7907,0 q 0,0.428625 0.180975,0.676275 0.180975,0.244475 0.56515,0.244475 0.38735,0 0.56515,-0.244475 0.1778,-0.24765 0.1778,-0.676275 0,-0.428625 -0.1778,-0.669925 -0.1778,-0.244475 -0.561975,-0.244475 -0.384175,0 -0.568325,0.244475 -0.180975,0.2413 -0.180975,0.669925 z"
       id="text6"
       style="font-size:3.175px;line-height:1.25;font-family:Sans;-inkscape-font-specification:'Sans, Normal';letter-spacing:0px;word-spacing:0px;stroke-width:0.264583"
       aria-label="O" />
    <path
       d="m 115.64336,22.21592 q 0,0.574675 -0.31432,0.866775 -0.31115,0.288925 -0.86995,0.288925 h -0.63183 v -2.26695 h 0.6985 q 0.3429,0 0.59373,0.127 0.25082,0.127 0.38735,0.37465 0.13652,0.244475 0.13652,0.6096 z m -0.30162,0.0095 q 0,-0.454025 -0.22543,-0.663575 -0.22225,-0.212725 -0.63182,-0.212725 h -0.37148 v 1.778 h 0.30798 q 0.92075,0 0.92075,-0.9017 z"
       id="text7"
       style="font-size:3.175px;line-height:1.25;font-family:Sans;-inkscape-font-specification:'Sans, Normal';letter-spacing:0px;word-spacing:0px;stroke-width:0.264583"
       aria-label="D" />
  </g>
</svg>
