<?xml version="1.0" encoding="UTF-8" standalone="no"?>
<!-- Created with Inkscape (http://www.inkscape.org/) -->

<svg
   width="36.72731mm"
   height="36.71954mm"
   viewBox="0 0 36.72731 36.71954"
   version="1.1"
   id="svg1"
   xmlns="http://www.w3.org/2000/svg"
   xmlns:svg="http://www.w3.org/2000/svg">
  <defs
     id="defs1">
    <marker
       style="overflow:visible"
       id="Dot"
       refX="0"
       refY="0"
       orient="auto"
       markerWidth="1"
       markerHeight="1"
       viewBox="0 0 1 1"
       preserveAspectRatio="xMidYMid">
      <path
         transform="scale(0.5)"
         style="fill:context-stroke;fill-rule:evenodd;stroke:none"
         d="M 5,0 C 5,2.76 2.76,5 0,5 -2.76,5 -5,2.76 -5,0 c 0,-2.76 2.3,-5 5,-5 2.76,0 5,2.24 5,5 z"
         id="path17" />
    </marker>
    <marker
       style="overflow:visible"
       id="Triangle"
       refX="0"
       refY="0"
       orient="auto-start-reverse"
       markerWidth="1"
       markerHeight="1"
       viewBox="0 0 1 1"
       preserveAspectRatio="xMidYMid">
      <path
         transform="scale(0.5)"
         style="fill:context-stroke;fill-rule:evenodd;stroke:context-stroke;stroke-width:1pt"
         d="M 5.77,0 -2.88,5 V -5 Z"
         id="path135" />
    </marker>
  </defs>
  <g
     id="layer1"
     transform="translate(-51.994757,-15.951834)">
    <path
       id="path1"
       style="fill:none;stroke:#000000;stroke-width:0.264999"
       d="M 88.5818,34.311604 A 18.22727,18.22727 0 0 1 70.35453,52.538874 18.22727,18.22727 0 0 1 52.12726,34.311604 18.22727,18.22727 0 0 1 70.35453,16.084333 18.22727,18.22727 0 0 1 88.5818,34.311604 Z" />
    <path
       id="path2"
       style="fill:none;stroke:#000000;stroke-width:0.264999"
       d="M 88.589573,34.779198 A 18.196476,4.396091 0 0 1 70.393097,39.175289 18.196476,4.396091 0 0 1 52.196621,34.779198 18.196476,4.396091 0 0 1 70.393097,30.383107 18.196476,4.396091 0 0 1 88.589573,34.779198 Z" />
    <path
       style="fill:none;stroke:#000000;stroke-width:0.259361;stroke-linecap:butt;stroke-linejoin:miter;stroke-dasharray:none;stroke-opacity:1;marker-start:url(#Dot);marker-end:url(#Triangle)"
       d="M 70.4904,34.459494 79.251934,19.346793"
       id="path3" />
    <g
       id="text3"
       style="font-size:10.5833px;line-height:1.25;letter-spacing:0px;word-spacing:0px;stroke-width:0.264583"
       aria-label="P0">
      <path
         style="font-size:3.175px;-inkscape-font-specification:'sans-serif, Normal'"
         d="m 72.19149,34.571177 q 0.4445,0 0.6477,0.174625 0.2032,0.174625 0.2032,0.492125 0,0.187325 -0.08572,0.352425 -0.08255,0.161925 -0.282575,0.263525 -0.19685,0.1016 -0.536575,0.1016 h -0.26035 v 0.88265 h -0.28575 v -2.26695 z m -0.0254,0.244475 h -0.288925 v 0.89535 h 0.2286 q 0.32385,0 0.4826,-0.104775 0.15875,-0.104775 0.15875,-0.3556 0,-0.219075 -0.1397,-0.327025 -0.1397,-0.10795 -0.441325,-0.10795 z"
         id="path5" />
      <path
         style="font-size:2.11667px;font-family:Sans;-inkscape-font-specification:'Sans, Normal'"
         d="m 74.311332,36.080359 q 0,0.243417 -0.0508,0.419101 -0.0508,0.173567 -0.160866,0.2667 -0.110067,0.09313 -0.292101,0.09313 -0.256117,0 -0.378884,-0.205317 -0.12065,-0.207434 -0.12065,-0.573618 0,-0.245533 0.04868,-0.4191 0.0508,-0.173567 0.160867,-0.264584 0.110067,-0.09313 0.289984,-0.09313 0.254,0 0.378884,0.205317 0.124884,0.203201 0.124884,0.571501 z m -0.817035,0 q 0,0.311151 0.06985,0.465668 0.07197,0.154517 0.243417,0.154517 0.169334,0 0.2413,-0.152401 0.07408,-0.154517 0.07408,-0.467784 0,-0.309033 -0.07408,-0.46355 -0.07197,-0.154517 -0.2413,-0.154517 -0.17145,0 -0.243417,0.154517 -0.06985,0.154517 -0.06985,0.46355 z"
         id="path6" />
    </g>
    <path
       style="font-size:3.175px;line-height:1.25;font-family:Sans;-inkscape-font-specification:'Sans, Normal';letter-spacing:0px;word-spacing:0px;stroke-width:0.264583"
       d="m 77.410923,25.978515 q 0.04762,0 0.1016,0.0063 0.05715,0.0032 0.09842,0.0127 l -0.03492,0.257175 q -0.04128,-0.0095 -0.09208,-0.01588 -0.04762,-0.0064 -0.09207,-0.0064 -0.130175,0 -0.244475,0.07303 -0.1143,0.06985 -0.18415,0.200025 -0.06667,0.127 -0.06667,0.29845 v 0.90805 h -0.2794 v -1.7018 h 0.2286 l 0.03175,0.31115 h 0.0127 q 0.08255,-0.1397 0.212725,-0.2413 0.130175,-0.1016 0.307975,-0.1016 z"
       id="text5"
       aria-label="r" />
  </g>
</svg>
