<svg version="1.1" xmlns="http://www.w3.org/2000/svg" xmlns:xlink="http://www.w3.org/1999/xlink" width="688" height="518"><defs><clipPath id="NWxGBfdDUSgJ"><path fill="none" stroke="none" d=" M 0 0 L 688 0 L 688 518 L 0 518 L 0 0 Z"/></clipPath></defs><g transform="scale(1,1)" clip-path="url(#NWxGBfdDUSgJ)"><g><rect fill="rgb(255,255,255)" stroke="none" x="0" y="0" width="689" height="518" fill-opacity="1"/><path fill="none" stroke="rgb(180,179,186)" paint-order="fill stroke markers" d=" M 65.5 0.5 L 65.5 518.5 M 65.5 0.5 L 65.5 518.5 M 234.5 0.5 L 234.5 518.5 M 318.5 0.5 L 318.5 518.5 M 402.5 0.5 L 402.5 518.5 M 486.5 0.5 L 486.5 518.5 M 571.5 0.5 L 571.5 518.5 M 655.5 0.5 L 655.5 518.5" stroke-opacity="1" stroke-linecap="round" stroke-linejoin="round" stroke-miterlimit="10"/><path fill="none" stroke="rgb(180,179,186)" paint-order="fill stroke markers" d=" M 15.5 0.5 L 15.5 518.5 M 32.5 0.5 L 32.5 518.5 M 49.5 0.5 L 49.5 518.5 M 82.5 0.5 L 82.5 518.5 M 99.5 0.5 L 99.5 518.5 M 116.5 0.5 L 116.5 518.5 M 133.5 0.5 L 133.5 518.5 M 167.5 0.5 L 167.5 518.5 M 183.5 0.5 L 183.5 518.5 M 200.5 0.5 L 200.5 518.5 M 217.5 0.5 L 217.5 518.5 M 251.5 0.5 L 251.5 518.5 M 268.5 0.5 L 268.5 518.5 M 284.5 0.5 L 284.5 518.5 M 301.5 0.5 L 301.5 518.5 M 335.5 0.5 L 335.5 518.5 M 352.5 0.5 L 352.5 518.5 M 369.5 0.5 L 369.5 518.5 M 385.5 0.5 L 385.5 518.5 M 419.5 0.5 L 419.5 518.5 M 436.5 0.5 L 436.5 518.5 M 453.5 0.5 L 453.5 518.5 M 470.5 0.5 L 470.5 518.5 M 503.5 0.5 L 503.5 518.5 M 520.5 0.5 L 520.5 518.5 M 537.5 0.5 L 537.5 518.5 M 554.5 0.5 L 554.5 518.5 M 588.5 0.5 L 588.5 518.5 M 604.5 0.5 L 604.5 518.5 M 621.5 0.5 L 621.5 518.5 M 638.5 0.5 L 638.5 518.5 M 672.5 0.5 L 672.5 518.5" stroke-opacity="0.23529411764705882" stroke-linecap="round" stroke-linejoin="round" stroke-miterlimit="10"/><path fill="none" stroke="rgb(180,179,186)" paint-order="fill stroke markers" d=" M 0.5 48.5 L 688.5 48.5 M 0.5 48.5 L 688.5 48.5 M 0.5 132.5 L 688.5 132.5 M 0.5 216.5 L 688.5 216.5 M 0.5 300.5 L 688.5 300.5 M 0.5 385.5 L 688.5 385.5" stroke-opacity="1" stroke-linecap="round" stroke-linejoin="round" stroke-miterlimit="10"/><path fill="none" stroke="rgb(180,179,186)" paint-order="fill stroke markers" d=" M 0.5 14.5 L 688.5 14.5 M 0.5 14.5 L 688.5 14.5 M 0.5 31.5 L 688.5 31.5 M 0.5 65.5 L 688.5 65.5 M 0.5 82.5 L 688.5 82.5 M 0.5 98.5 L 688.5 98.5 M 0.5 115.5 L 688.5 115.5 M 0.5 149.5 L 688.5 149.5 M 0.5 166.5 L 688.5 166.5 M 0.5 183.5 L 688.5 183.5 M 0.5 199.5 L 688.5 199.5 M 0.5 233.5 L 688.5 233.5 M 0.5 250.5 L 688.5 250.5 M 0.5 267.5 L 688.5 267.5 M 0.5 284.5 L 688.5 284.5 M 0.5 317.5 L 688.5 317.5 M 0.5 334.5 L 688.5 334.5 M 0.5 351.5 L 688.5 351.5 M 0.5 368.5 L 688.5 368.5 M 0.5 402.5 L 688.5 402.5 M 0.5 418.5 L 688.5 418.5 M 0.5 435.5 L 688.5 435.5 M 0.5 452.5 L 688.5 452.5 M 0.5 486.5 L 688.5 486.5 M 0.5 503.5 L 688.5 503.5" stroke-opacity="0.23529411764705882" stroke-linecap="round" stroke-linejoin="round" stroke-miterlimit="10"/><path fill="none" stroke="rgb(28,28,31)" paint-order="fill stroke markers" d=" M 150.5 2.5 L 150.5 518.5" stroke-opacity="1" stroke-miterlimit="10"/><path fill="none" stroke="rgb(28,28,31)" paint-order="fill stroke markers" d=" M 150.5 1.5 L 146.5 5.5" stroke-opacity="1" stroke-miterlimit="10"/><path fill="none" stroke="rgb(28,28,31)" paint-order="fill stroke markers" d=" M 150.5 1.5 L 154.5 5.5" stroke-opacity="1" stroke-miterlimit="10"/><path fill="none" stroke="rgb(28,28,31)" paint-order="fill stroke markers" d=" M 0.5 469.5 L 686.5 469.5" stroke-opacity="1" stroke-miterlimit="10"/><path fill="none" stroke="rgb(28,28,31)" paint-order="fill stroke markers" d=" M 687.5 469.5 L 683.5 465.5" stroke-opacity="1" stroke-miterlimit="10"/><path fill="none" stroke="rgb(28,28,31)" paint-order="fill stroke markers" d=" M 687.5 469.5 L 683.5 473.5" stroke-opacity="1" stroke-miterlimit="10"/><text fill="rgb(28,28,31)" stroke="none" font-family="geogebra-sans-serif, sans-serif" font-size="12px" font-style="normal" font-weight="normal" text-decoration="normal" x="54" y="485" text-anchor="start" dominant-baseline="alphabetic" fill-opacity="1">–0.2</text><text fill="rgb(28,28,31)" stroke="none" font-family="geogebra-sans-serif, sans-serif" font-size="12px" font-style="normal" font-weight="normal" text-decoration="normal" x="226" y="485" text-anchor="start" dominant-baseline="alphabetic" fill-opacity="1">0.2</text><text fill="rgb(28,28,31)" stroke="none" font-family="geogebra-sans-serif, sans-serif" font-size="12px" font-style="normal" font-weight="normal" text-decoration="normal" x="310" y="485" text-anchor="start" dominant-baseline="alphabetic" fill-opacity="1">0.4</text><text fill="rgb(28,28,31)" stroke="none" font-family="geogebra-sans-serif, sans-serif" font-size="12px" font-style="normal" font-weight="normal" text-decoration="normal" x="394" y="485" text-anchor="start" dominant-baseline="alphabetic" fill-opacity="1">0.6</text><text fill="rgb(28,28,31)" stroke="none" font-family="geogebra-sans-serif, sans-serif" font-size="12px" font-style="normal" font-weight="normal" text-decoration="normal" x="478" y="485" text-anchor="start" dominant-baseline="alphabetic" fill-opacity="1">0.8</text><text fill="rgb(28,28,31)" stroke="none" font-family="geogebra-sans-serif, sans-serif" font-size="12px" font-style="normal" font-weight="normal" text-decoration="normal" x="569" y="485" text-anchor="start" dominant-baseline="alphabetic" fill-opacity="1">1</text><text fill="rgb(28,28,31)" stroke="none" font-family="geogebra-sans-serif, sans-serif" font-size="12px" font-style="normal" font-weight="normal" text-decoration="normal" x="647" y="485" text-anchor="start" dominant-baseline="alphabetic" fill-opacity="1">1.2</text><text fill="rgb(28,28,31)" stroke="none" font-family="geogebra-sans-serif, sans-serif" font-size="12px" font-style="normal" font-weight="normal" text-decoration="normal" x="126" y="390" text-anchor="start" dominant-baseline="alphabetic" fill-opacity="1">0.2</text><text fill="rgb(28,28,31)" stroke="none" font-family="geogebra-sans-serif, sans-serif" font-size="12px" font-style="normal" font-weight="normal" text-decoration="normal" x="126" y="305" text-anchor="start" dominant-baseline="alphabetic" fill-opacity="1">0.4</text><text fill="rgb(28,28,31)" stroke="none" font-family="geogebra-sans-serif, sans-serif" font-size="12px" font-style="normal" font-weight="normal" text-decoration="normal" x="126" y="221" text-anchor="start" dominant-baseline="alphabetic" fill-opacity="1">0.6</text><text fill="rgb(28,28,31)" stroke="none" font-family="geogebra-sans-serif, sans-serif" font-size="12px" font-style="normal" font-weight="normal" text-decoration="normal" x="126" y="137" text-anchor="start" dominant-baseline="alphabetic" fill-opacity="1">0.8</text><text fill="rgb(28,28,31)" stroke="none" font-family="geogebra-sans-serif, sans-serif" font-size="12px" font-style="normal" font-weight="normal" text-decoration="normal" x="136" y="53" text-anchor="start" dominant-baseline="alphabetic" fill-opacity="1">1</text><text fill="rgb(28,28,31)" stroke="none" font-family="geogebra-sans-serif, sans-serif" font-size="12px" font-style="normal" font-weight="normal" text-decoration="normal" x="136" y="485" text-anchor="start" dominant-baseline="alphabetic" fill-opacity="1">0</text><path fill="rgb(153,51,0)" stroke="none" paint-order="stroke fill markers" fill-rule="evenodd" d=" M 150.16355958913226 469.37984502729796 L 571.1878076412404 469.37984502729796 L 150.16355958913226 48.35559697518863 Z" fill-opacity="0.09803921568627451"/><text fill="rgb(153,51,0)" stroke="none" font-family="geogebra-sans-serif, sans-serif" font-size="16px" font-style="normal" font-weight="normal" text-decoration="normal" x="360" y="485" text-anchor="start" dominant-baseline="alphabetic" fill-opacity="1">E1</text><path fill="none" stroke="rgb(153,51,0)" paint-order="fill stroke markers" d=" M 150.16355958913226 469.37984502729796 L 571.1878076412404 469.37984502729796" stroke-opacity="0.6980392156862745" stroke-linecap="round" stroke-linejoin="round" stroke-miterlimit="10" stroke-width="2.5"/><path fill="none" stroke="rgb(153,51,0)" paint-order="fill stroke markers" d=" M 571.1878076412404 469.37984502729796 L 150.16355958913226 48.35559697518863" stroke-opacity="0.6980392156862745" stroke-linecap="round" stroke-linejoin="round" stroke-miterlimit="10" stroke-width="2.5"/><text fill="rgb(153,51,0)" stroke="none" font-family="geogebra-sans-serif, sans-serif" font-size="16px" font-style="normal" font-weight="normal" text-decoration="normal" x="124" y="262" text-anchor="start" dominant-baseline="alphabetic" fill-opacity="1">E2</text><path fill="none" stroke="rgb(153,51,0)" paint-order="fill stroke markers" d=" M 150.16355958913226 48.35559697518863 L 150.16355958913226 469.37984502729796" stroke-opacity="0.6980392156862745" stroke-linecap="round" stroke-linejoin="round" stroke-miterlimit="10" stroke-width="2.5"/><path fill="rgb(110,109,115)" stroke="none" paint-order="stroke fill markers" d=" M 154.16355958913226 469.37984502729796 C 154.16355958913226 471.5889840266211 152.37269858845542 473.37984502729796 150.16355958913226 473.37984502729796 C 147.95442058980908 473.37984502729796 146.16355958913226 471.5889840266211 146.16355958913226 469.37984502729796 C 146.16355958913226 467.1707060279748 147.95442058980908 465.37984502729796 150.16355958913226 465.37984502729796 C 152.37269858845542 465.37984502729796 154.16355958913226 467.1707060279748 154.16355958913226 469.37984502729796 Z" fill-opacity="1"/><path fill="none" stroke="rgb(0,0,0)" paint-order="fill stroke markers" d=" M 154.16355958913226 469.37984502729796 C 154.16355958913226 471.5889840266211 152.37269858845542 473.37984502729796 150.16355958913226 473.37984502729796 C 147.95442058980908 473.37984502729796 146.16355958913226 471.5889840266211 146.16355958913226 469.37984502729796 C 146.16355958913226 467.1707060279748 147.95442058980908 465.37984502729796 150.16355958913226 465.37984502729796 C 152.37269858845542 465.37984502729796 154.16355958913226 467.1707060279748 154.16355958913226 469.37984502729796 Z" stroke-opacity="1" stroke-linecap="round" stroke-linejoin="round" stroke-miterlimit="10"/><text fill="rgb(110,109,115)" stroke="none" font-family="geogebra-sans-serif, sans-serif" font-size="16px" font-style="normal" font-weight="normal" text-decoration="normal" x="154" y="461" text-anchor="start" dominant-baseline="alphabetic" fill-opacity="1">A</text><path fill="rgb(77,77,255)" stroke="none" paint-order="stroke fill markers" d=" M 576.1878076412404 469.37984502729796 C 576.1878076412404 472.1412687764519 573.9492313903944 474.37984502729796 571.1878076412404 474.37984502729796 C 568.4263838920864 474.37984502729796 566.1878076412404 472.1412687764519 566.1878076412404 469.37984502729796 C 566.1878076412404 466.618421278144 568.4263838920864 464.37984502729796 571.1878076412404 464.37984502729796 C 573.9492313903944 464.37984502729796 576.1878076412404 466.618421278144 576.1878076412404 469.37984502729796 Z" fill-opacity="1"/><path fill="none" stroke="rgb(0,0,0)" paint-order="fill stroke markers" d=" M 576.1878076412404 469.37984502729796 C 576.1878076412404 472.1412687764519 573.9492313903944 474.37984502729796 571.1878076412404 474.37984502729796 C 568.4263838920864 474.37984502729796 566.1878076412404 472.1412687764519 566.1878076412404 469.37984502729796 C 566.1878076412404 466.618421278144 568.4263838920864 464.37984502729796 571.1878076412404 464.37984502729796 C 573.9492313903944 464.37984502729796 576.1878076412404 466.618421278144 576.1878076412404 469.37984502729796 Z" stroke-opacity="1" stroke-linecap="round" stroke-linejoin="round" stroke-miterlimit="10"/><text fill="rgb(77,77,255)" stroke="none" font-family="geogebra-sans-serif, sans-serif" font-size="16px" font-style="normal" font-weight="normal" text-decoration="normal" x="575" y="459" text-anchor="start" dominant-baseline="alphabetic" fill-opacity="1">B</text><path fill="rgb(125,125,255)" stroke="none" paint-order="stroke fill markers" d=" M 155.16355958913226 48.35559697518863 C 155.16355958913226 51.117020724342595 152.92498333828624 53.35559697518863 150.16355958913226 53.35559697518863 C 147.40213583997829 53.35559697518863 145.16355958913226 51.117020724342595 145.16355958913226 48.35559697518863 C 145.16355958913226 45.59417322603466 147.40213583997829 43.35559697518863 150.16355958913226 43.35559697518863 C 152.92498333828624 43.35559697518863 155.16355958913226 45.59417322603466 155.16355958913226 48.35559697518863 Z" fill-opacity="1"/><path fill="none" stroke="rgb(0,0,0)" paint-order="fill stroke markers" d=" M 155.16355958913226 48.35559697518863 C 155.16355958913226 51.117020724342595 152.92498333828624 53.35559697518863 150.16355958913226 53.35559697518863 C 147.40213583997829 53.35559697518863 145.16355958913226 51.117020724342595 145.16355958913226 48.35559697518863 C 145.16355958913226 45.59417322603466 147.40213583997829 43.35559697518863 150.16355958913226 43.35559697518863 C 152.92498333828624 43.35559697518863 155.16355958913226 45.59417322603466 155.16355958913226 48.35559697518863 Z" stroke-opacity="1" stroke-linecap="round" stroke-linejoin="round" stroke-miterlimit="10"/><text fill="rgb(125,125,255)" stroke="none" font-family="geogebra-sans-serif, sans-serif" font-size="16px" font-style="normal" font-weight="normal" text-decoration="normal" x="154" y="38" text-anchor="start" dominant-baseline="alphabetic" fill-opacity="1">C</text><path fill="rgb(125,125,255)" stroke="none" paint-order="stroke fill markers" d=" M 407.7781084203972 300.9701458064542 C 407.7781084203972 303.73156955560813 405.53953216955114 305.9701458064542 402.7781084203972 305.9701458064542 C 400.01668467124324 305.9701458064542 397.7781084203972 303.73156955560813 397.7781084203972 300.9701458064542 C 397.7781084203972 298.20872205730024 400.01668467124324 295.9701458064542 402.7781084203972 295.9701458064542 C 405.53953216955114 295.9701458064542 407.7781084203972 298.20872205730024 407.7781084203972 300.9701458064542 Z" fill-opacity="1"/><path fill="none" stroke="rgb(0,0,0)" paint-order="fill stroke markers" d=" M 407.7781084203972 300.9701458064542 C 407.7781084203972 303.73156955560813 405.53953216955114 305.9701458064542 402.7781084203972 305.9701458064542 C 400.01668467124324 305.9701458064542 397.7781084203972 303.73156955560813 397.7781084203972 300.9701458064542 C 397.7781084203972 298.20872205730024 400.01668467124324 295.9701458064542 402.7781084203972 295.9701458064542 C 405.53953216955114 295.9701458064542 407.7781084203972 298.20872205730024 407.7781084203972 300.9701458064542 Z" stroke-opacity="1" stroke-linecap="round" stroke-linejoin="round" stroke-miterlimit="10"/><text fill="rgb(125,125,255)" stroke="none" font-family="geogebra-sans-serif, sans-serif" font-size="16px" font-style="normal" font-weight="normal" text-decoration="normal" x="407" y="291" text-anchor="start" dominant-baseline="alphabetic" fill-opacity="1">Q</text></g></g></svg>